<svg width="43" height="43" viewBox="0 0 43 43" fill="none" xmlns="http://www.w3.org/2000/svg">
<g clip-path="url(#clip0_70_59)">
<path d="M43 17.9167V34.0417C42.9972 36.4167 42.0524 38.6936 40.373 40.373C38.6936 42.0524 36.4167 42.9972 34.0417 43H8.95833C6.58331 42.9972 4.30637 42.0524 2.62698 40.373C0.94758 38.6936 0.00284491 36.4167 0 34.0417L0 14.3333C0.00284491 11.9583 0.94758 9.68137 2.62698 8.00198C4.30637 6.32258 6.58331 5.37784 8.95833 5.375H23.2917C23.7668 5.375 24.2226 5.56376 24.5586 5.89977C24.8946 6.23577 25.0833 6.69149 25.0833 7.16667C25.0833 7.64185 24.8946 8.09756 24.5586 8.43357C24.2226 8.76957 23.7668 8.95833 23.2917 8.95833H8.95833C7.98404 8.96103 7.02893 9.22938 6.19579 9.7345C5.36266 10.2396 4.68306 10.9624 4.23012 11.825L17.6981 25.2948C18.708 26.3 20.075 26.8644 21.5 26.8644C22.925 26.8644 24.292 26.3 25.3019 25.2948L32.1479 18.4542C32.4858 18.1278 32.9384 17.9472 33.4081 17.9513C33.8779 17.9554 34.3273 18.1438 34.6595 18.476C34.9917 18.8082 35.1801 19.2576 35.1842 19.7273C35.1882 20.1971 35.0077 20.6497 34.6813 20.9876L27.8353 27.8353C26.1534 29.5124 23.8751 30.4541 21.5 30.4541C19.1249 30.4541 16.8466 29.5124 15.1647 27.8353L3.58333 16.2522V34.0417C3.58333 35.4672 4.14963 36.8344 5.15763 37.8424C6.16564 38.8504 7.53279 39.4167 8.95833 39.4167H34.0417C35.4672 39.4167 36.8344 38.8504 37.8424 37.8424C38.8504 36.8344 39.4167 35.4672 39.4167 34.0417V17.9167C39.4167 17.4415 39.6054 16.9858 39.9414 16.6498C40.2774 16.3138 40.7332 16.125 41.2083 16.125C41.6835 16.125 42.1392 16.3138 42.4752 16.6498C42.8112 16.9858 43 17.4415 43 17.9167ZM30.4583 8.95833H34.0417V12.5417C34.0417 13.0168 34.2304 13.4726 34.5664 13.8086C34.9024 14.1446 35.3582 14.3333 35.8333 14.3333C36.3085 14.3333 36.7642 14.1446 37.1002 13.8086C37.4362 13.4726 37.625 13.0168 37.625 12.5417V8.95833H41.2083C41.6835 8.95833 42.1392 8.76957 42.4752 8.43357C42.8112 8.09756 43 7.64185 43 7.16667C43 6.69149 42.8112 6.23577 42.4752 5.89977C42.1392 5.56376 41.6835 5.375 41.2083 5.375H37.625V1.79167C37.625 1.31649 37.4362 0.86077 37.1002 0.524767C36.7642 0.188764 36.3085 0 35.8333 0C35.3582 0 34.9024 0.188764 34.5664 0.524767C34.2304 0.86077 34.0417 1.31649 34.0417 1.79167V5.375H30.4583C29.9832 5.375 29.5274 5.56376 29.1914 5.89977C28.8554 6.23577 28.6667 6.69149 28.6667 7.16667C28.6667 7.64185 28.8554 8.09756 29.1914 8.43357C29.5274 8.76957 29.9832 8.95833 30.4583 8.95833Z" fill="#141718"/>
</g>
<defs>
<clipPath id="clip0_70_59">
<rect width="43" height="43" fill="white"/>
</clipPath>
</defs>
</svg>
