<svg width="56" height="55" viewBox="0 0 56 55" fill="none" xmlns="http://www.w3.org/2000/svg">
<path d="M22.9264 17.4291L17.1773 29.8277C16.2243 31.8829 16.1268 34.2325 16.9062 36.3596C17.6856 38.4867 19.278 40.217 21.3332 41.17C23.3884 42.123 25.738 42.2205 27.8651 41.4411C29.9922 40.6617 31.7226 39.0692 32.6755 37.014L39.5026 22.2907C40.1697 20.852 40.2379 19.2073 39.6923 17.7184C39.1468 16.2294 38.032 15.0181 36.5934 14.3511C35.1548 13.684 33.5101 13.6157 32.0211 14.1613C30.5321 14.7069 29.3209 15.8216 28.6538 17.2602L22.5454 30.4338C22.1642 31.2559 22.1252 32.1957 22.437 33.0465C22.7487 33.8974 23.3857 34.5895 24.2078 34.9707C25.0299 35.3519 25.9697 35.3909 26.8205 35.0791C27.6714 34.7674 28.3635 34.1304 28.7447 33.3083L33.7751 22.4595" stroke="#222222" stroke-width="1.66667" stroke-linecap="round" stroke-linejoin="round"/>
</svg>
