<svg width="40" height="40" viewBox="0 0 40 40" fill="none" xmlns="http://www.w3.org/2000/svg">
<path fill-rule="evenodd" clip-rule="evenodd" d="M19.2 40C10.149 40 5.62356 40 2.81178 37.1882C5.29819e-07 34.3764 4.69882e-07 29.8509 7.08427e-08 20.7999L3.0048e-10 19.1999C-3.98734e-07 10.1489 -5.29819e-07 5.62339 2.81178 2.81162C5.62356 5.29819e-07 10.149 4.61882e-07 19.2 6.96374e-08L20.8 2.92985e-10C29.851 -3.91963e-07 34.3764 -7.94729e-07 37.1882 2.81162C40 5.62339 40 10.1489 40 19.1999V20.7999C40 29.8509 40 34.3764 37.1882 37.1882C34.3764 40 29.851 40 20.8 40H19.2Z" fill="#0077FF"/>
<path d="M23.1312 24.6505C22.0535 24.3813 21.2979 23.4173 21.2979 22.3117V9.28534C21.2979 8.02946 22.4845 7.10839 23.7086 7.41418L31.4605 9.35063C32.5382 9.61984 33.2939 10.5839 33.2939 11.6895V24.7159C33.2939 25.9718 32.1071 26.8928 30.8831 26.587L23.1312 24.6505Z" fill="white"/>
<path d="M15.835 27.6502C14.7574 27.381 14.0017 26.417 14.0017 25.3113V12.285C14.0017 11.0291 15.1884 10.1081 16.4125 10.4138L24.1643 12.3503C25.242 12.6195 25.9977 13.5836 25.9977 14.6892V27.7156C25.9977 28.9715 24.8109 29.8925 23.5869 29.5867L15.835 27.6502Z" fill="white"/>
<path d="M20.9072 28.9209C20.5678 28.8344 20.3261 28.5342 20.3142 28.1841L19.977 18.236C19.8795 16.9194 18.9021 15.8722 17.8808 15.5639C17.8235 15.5466 17.7622 15.5699 17.7284 15.6192C17.6938 15.6693 17.7071 15.7388 17.7552 15.776C18.0075 15.9712 18.7016 16.6083 18.7016 17.7073L18.6996 28.3614L20.9072 28.9209Z" fill="#0077FF"/>
<path d="M28.2031 25.919C27.864 25.8341 27.6221 25.5348 27.6103 25.1855L27.2729 15.238C27.1755 13.9213 26.198 12.8742 25.1767 12.5658C25.1194 12.5486 25.0581 12.5719 25.0243 12.6212C24.9897 12.6713 25.003 12.7407 25.0511 12.778C25.3034 12.9732 25.9976 13.6103 25.9976 14.7092L25.9955 25.367L28.2031 25.919Z" fill="#0077FF"/>
<path d="M8.50011 30.6287C7.4224 30.3595 6.66675 29.3955 6.66675 28.2898V15.2635C6.66675 14.0076 7.85346 13.0866 9.07755 13.3924L16.8293 15.3288C17.9071 15.598 18.6628 16.562 18.6628 17.6677V30.694C18.6628 31.9499 17.476 32.8709 16.2519 32.5651L8.50011 30.6287Z" fill="white"/>
</svg>
