<svg width="43" height="43" viewBox="0 0 43 43" fill="none" xmlns="http://www.w3.org/2000/svg">
<g clip-path="url(#clip0_70_60)">
<path d="M41.2083 19.7078H1.79167C0.802156 19.7078 0 20.5099 0 21.4994C0 22.489 0.802156 23.2911 1.79167 23.2911H41.2083C42.1978 23.2911 43 22.489 43 21.4994C43 20.5099 42.1978 19.7078 41.2083 19.7078Z" fill="#222222"/>
<path d="M41.2083 7.16724H1.79167C0.802156 7.16724 0 7.96939 0 8.9589C0 9.94841 0.802156 10.7506 1.79167 10.7506H41.2083C42.1978 10.7506 43 9.94841 43 8.9589C43 7.96939 42.1978 7.16724 41.2083 7.16724Z" fill="#222222"/>
<path d="M41.2083 32.25H1.79167C0.802156 32.25 0 33.0522 0 34.0417C0 35.0312 0.802156 35.8334 1.79167 35.8334H41.2083C42.1978 35.8334 43 35.0312 43 34.0417C43 33.0522 42.1978 32.25 41.2083 32.25Z" fill="#222222"/>
</g>
<defs>
<clipPath id="clip0_70_60">
<rect width="43" height="43" fill="white"/>
</clipPath>
</defs>
</svg>
