<svg width="40" height="40" viewBox="0 0 40 40" fill="none" xmlns="http://www.w3.org/2000/svg">
<g clip-path="url(#clip0_3_71)">
<path d="M20 13.3333C18.9391 13.3333 17.9217 13.7548 17.1716 14.5049C16.4214 15.255 16 16.2725 16 17.3333C16 18.3942 16.4214 19.4116 17.1716 20.1618C17.9217 20.9119 18.9391 21.3333 20 21.3333C21.0609 21.3333 22.0783 20.9119 22.8284 20.1618C23.5786 19.4116 24 18.3942 24 17.3333C24 16.2725 23.5786 15.255 22.8284 14.5049C22.0783 13.7548 21.0609 13.3333 20 13.3333Z" fill="#0077FF"/>
<path fill-rule="evenodd" clip-rule="evenodd" d="M24 5.33333H21.3333V0H18.6667V5.33333H16C11.7565 5.33333 7.68687 7.01904 4.68629 10.0196C1.68571 13.0202 0 17.0899 0 21.3333C0 25.5768 1.68571 29.6465 4.68629 32.647C7.68687 35.6476 11.7565 37.3333 16 37.3333H24C24.3467 37.3333 24.6933 37.3227 25.0373 37.2987L35.6773 39.96C35.9006 40.0156 36.1344 40.0125 36.356 39.951C36.5777 39.8895 36.7797 39.7716 36.9423 39.609C37.105 39.4463 37.2228 39.2443 37.2843 39.0227C37.3458 38.801 37.3489 38.5672 37.2933 38.344L35.7547 32.1867C37.8643 29.9016 39.2622 27.0512 39.7775 23.9841C40.2927 20.9171 39.903 17.7664 38.6558 14.9173C37.4087 12.0683 35.3583 9.6445 32.7554 7.94238C30.1526 6.24025 27.11 5.33361 24 5.33333ZM13.3333 17.3333C13.3333 15.5652 14.0357 13.8695 15.286 12.6193C16.5362 11.369 18.2319 10.6667 20 10.6667C21.7681 10.6667 23.4638 11.369 24.714 12.6193C25.9643 13.8695 26.6667 15.5652 26.6667 17.3333C26.6667 19.1014 25.9643 20.7971 24.714 22.0474C23.4638 23.2976 21.7681 24 20 24C18.2319 24 16.5362 23.2976 15.286 22.0474C14.0357 20.7971 13.3333 19.1014 13.3333 17.3333ZM20 32C17.2725 32.0041 14.6256 31.0754 12.4987 29.368L14.168 27.288C15.7653 28.568 17.792 29.3333 20 29.3333C22.208 29.3333 24.2347 28.568 25.832 27.288L27.5013 29.368C25.3743 31.0754 22.7275 32.0041 20 32Z" fill="#0077FF"/>
</g>
<defs>
<clipPath id="clip0_3_71">
<rect width="40" height="40" fill="white"/>
</clipPath>
</defs>
</svg>
